<?xml version="1.0" standalone="no"?>
<!DOCTYPE svg PUBLIC "-//W3C//DTD SVG 1.0//EN" "http://www.w3.org/TR/2001/REC-SVG-20010904/DTD/svg10.dtd">
<svg xmlns="http://www.w3.org/2000/svg" xmlns:xlink="http://www.w3.org/1999/xlink" id="body_1" width="100" height="100">

<defs>
            <clipPath  id="1">

                <path clip-rule="evenodd" d="M88 86L357 86L357 348L88 348L88 86z" />            </clipPath>
                <clipPath  id="2">

                    <path clip-rule="evenodd" d="M270.72266 347.02344L88.67969 145.28906L265.1914 -13.996094L447.23438 187.73438L270.72266 347.02344z" />                </clipPath>
                    <clipPath  id="3">

                        <path clip-rule="evenodd" d="M356.21484 86.86719L88.67969 145.28906L270.72266 347.02344L356.21484 86.86719" />                    </clipPath>
            <clipPath  id="4">

                <path clip-rule="evenodd" d="M46 69L315 69L315 330L46 330L46 69z" />            </clipPath>
                <clipPath  id="5">

                    <path clip-rule="evenodd" d="M228.76562 329.72266L46.722656 127.99219L223.23828 -31.296875L405.28125 170.4336L228.76562 329.72266z" />                </clipPath>
                    <clipPath  id="6">

                        <path clip-rule="evenodd" d="M314.2578 69.57031L46.722656 127.99219L228.76562 329.72266L314.2578 69.57031" />                    </clipPath>
            <clipPath  id="7">

                <path clip-rule="evenodd" d="M10 52L278 52L278 313L10 313L10 52z" />            </clipPath>
                <clipPath  id="8">

                    <path clip-rule="evenodd" d="M192.3086 312.53516L10.265625 110.80469L186.78125 -48.484375L368.82422 153.2461L192.3086 312.53516z" />                </clipPath>
                    <clipPath  id="9">

                        <path clip-rule="evenodd" d="M277.80078 52.382812L10.265625 110.80469L192.3086 312.53516L277.80078 52.382812" />                    </clipPath>
</defs>

<g transform="matrix(0.2666667 0 0 0.2666667 0 0)">
	<g>
		<g clip-path="url(#1)" >
			<g clip-path="url(#2)" >
				<g clip-path="url(#3)" >
                    <path d="M270.72266 347.02344L88.67969 145.28906L265.1914 -13.996094L447.23438 187.73438L270.72266 347.02344z" stroke="none" fill="#2B033D" fill-rule="nonzero" />
				</g>
			</g>
		</g>
		<g clip-path="url(#4)" >
			<g clip-path="url(#5)" >
				<g clip-path="url(#6)" >
                    <path d="M228.76562 329.72266L46.722656 127.99219L223.23828 -31.296875L405.28125 170.4336L228.76562 329.72266z" stroke="none" fill="#720E9E" fill-rule="nonzero" />
				</g>
			</g>
		</g>
		<g clip-path="url(#7)" >
			<g clip-path="url(#8)" >
				<g clip-path="url(#9)" >
                    <path d="M192.3086 312.53516L10.265625 110.80469L186.78125 -48.484375L368.82422 153.2461L192.3086 312.53516z" stroke="none" fill="#FFFF00" fill-rule="nonzero" />
				</g>
			</g>
		</g>
        <path d="M158.1914 110.63281L146.625 107.10156C 136.48828 104.00781 125.59375 109.71484 122.46875 119.96094L122.46875 119.96094L108.34375 166.23047C 105.453125 175.70703 110.22656 185.71094 119.03516 189.60547L119.03516 189.60547L117.65625 194.1211L133.6289 198.9961L135.00781 194.48047C 144.48828 196.16797 154.03516 190.53125 156.92969 181.0586L156.92969 181.0586L171.05078 134.78906C 174.17578 124.54297 168.4375 113.75781 158.1914 110.63281zM141.0664 176.21875C 140.6289 177.64844 139.07812 178.38281 137.64844 177.94531L137.64844 177.94531L126.078125 174.41406C 124.64844 173.97656 123.88281 172.53906 124.32031 171.10547L124.32031 171.10547L138.4414 124.83594C 138.8789 123.40625 140.35156 122.52734 141.78125 122.96484L141.78125 122.96484L153.34766 126.49609C 154.78125 126.93359 155.625 128.51562 155.1875 129.94922z" stroke="none" fill="#720E9E" fill-rule="nonzero" fill-opacity="0.4" />
        <path d="M210.50781 126.23828L203.3789 149.59375L199.16016 122.77344L182.30469 117.63281L156.85547 201.02734L172.82812 205.90234L187.75781 156.98828L192.32031 185.83984L185.05469 209.63281L201.03125 214.50781L226.48438 131.11328L210.50781 126.23828z" stroke="none" fill="#720E9E" fill-rule="nonzero" fill-opacity="0.4" />
        <path d="M154.8125 104.27734L143.2461 100.74609C 133.10938 97.65234 122.21484 103.359375 119.08984 113.60547L119.08984 113.60547L104.96484 159.875C 102.07422 169.35156 106.84766 179.35547 115.65625 183.25L115.65625 183.25L114.27734 187.76562L130.25 192.64062L131.6289 188.125C 141.10938 189.8125 150.65625 184.17578 153.55078 174.70312L153.55078 174.70312L167.67188 128.4336C 170.79688 118.1875 165.0586 107.40234 154.8125 104.27734zM137.6875 169.86328C 137.25 171.29297 135.69922 172.02734 134.26953 171.58984L134.26953 171.58984L122.69922 168.0586C 121.26953 167.6211 120.50391 166.1836 120.94141 164.75L120.94141 164.75L135.0625 118.48047C 135.5 117.05078 136.97266 116.171875 138.40234 116.609375L138.40234 116.609375L149.96875 120.140625C 151.40234 120.578125 152.2461 122.16016 151.8086 123.59375z" stroke="none" fill="#720E9E" fill-rule="nonzero" />
        <path d="M207.125 119.88281L199.9961 143.23828L195.77734 116.41797L178.92188 111.27734L153.47266 194.67188L169.44531 199.54688L184.375 150.63281L188.9375 179.48438L181.67188 203.27734L197.64844 208.15234L223.10156 124.75781L207.125 119.88281z" stroke="none" fill="#720E9E" fill-rule="nonzero" />
	</g>
</g>
</svg>